<svg width="19" height="19" viewBox="0 0 19 19" fill="none" xmlns="http://www.w3.org/2000/svg">
<path d="M6.64373 17.843V14.9295C6.64372 14.1912 7.27567 13.5914 8.05844 13.5867H10.9326C11.7189 13.5867 12.3563 14.1879 12.3563 14.9295V17.8345C12.3563 18.4749 12.904 18.9953 13.5829 19H15.5438C16.4596 19.0022 17.3388 18.6606 17.9872 18.0506C18.6356 17.4407 19 16.6124 19 15.7486V7.47254C19 6.77481 18.6721 6.11297 18.1046 5.66532L11.443 0.640554C10.2785 -0.238333 8.61537 -0.209942 7.48539 0.708114L0.967012 5.66532C0.372741 6.09977 0.0175523 6.76357 0 7.47254V15.7402C0 17.5405 1.54738 19 3.45617 19H5.37229C5.69917 19.0022 6.01349 18.8813 6.24547 18.6641C6.47746 18.4469 6.60793 18.1513 6.60792 17.843H6.64373Z" fill="white"/>
</svg>
