<svg width="30" height="35" viewBox="0 0 30 35" fill="none" xmlns="http://www.w3.org/2000/svg">
<path d="M15 3.74992C12.3766 3.74992 10.25 5.87657 10.25 8.49992V16.4166C10.25 19.0399 12.3766 21.1666 15 21.1666C17.6234 21.1666 19.75 19.0399 19.75 16.4166V8.49992C19.75 5.87657 17.6234 3.74992 15 3.74992ZM16.5833 30.5796V33.0416C16.5833 33.916 15.8745 34.6249 15 34.6249C14.1255 34.6249 13.4167 33.916 13.4167 33.0416V30.5796C6.29175 29.792 0.75 23.7515 0.75 16.4166C0.75 15.5421 1.45888 14.8333 2.33333 14.8333C3.20778 14.8333 3.91667 15.5421 3.91667 16.4166C3.91667 22.5377 8.87884 27.4999 15 27.4999C21.1212 27.4999 26.0833 22.5377 26.0833 16.4166C26.0833 15.5421 26.7922 14.8333 27.6667 14.8333C28.5411 14.8333 29.25 15.5421 29.25 16.4166C29.25 23.7515 23.7083 29.792 16.5833 30.5796ZM15 0.583252C19.3723 0.583252 22.9167 4.12766 22.9167 8.49992V16.4166C22.9167 20.7888 19.3723 24.3333 15 24.3333C10.6277 24.3333 7.08333 20.7888 7.08333 16.4166V8.49992C7.08333 4.12766 10.6277 0.583252 15 0.583252Z" fill="#010101"/>
</svg>
