<svg width="19" height="19" viewBox="0 0 19 19" fill="none" xmlns="http://www.w3.org/2000/svg">
<mask id="mask0_1207_533" style="mask-type:luminance" maskUnits="userSpaceOnUse" x="0" y="0" width="19" height="19">
<path d="M19 0H0V19H19V0Z" fill="white"/>
</mask>
<g mask="url(#mask0_1207_533)">
<path fill-rule="evenodd" clip-rule="evenodd" d="M10.8306 18.2926C10.1125 18.4312 9.02712 18.447 8.28701 18.3187C8.10473 18.2873 7.91533 18.1177 7.86367 17.9402L7.38362 16.2884C7.33197 16.1109 7.16037 15.8918 7.00036 15.7995L5.26097 14.7954C5.10095 14.7031 4.82604 14.6669 4.64762 14.7147L3.00917 15.1537C2.83075 15.2015 2.58909 15.1255 2.47004 14.9845C2.01226 14.4424 1.49214 13.5393 1.25375 12.8919C1.18992 12.7185 1.24187 12.4697 1.36953 12.3361L2.60156 11.0515C2.72922 10.9182 2.83312 10.66 2.83312 10.475V8.46664C2.83312 8.28198 2.72714 8.02578 2.59651 7.89516L1.36834 6.66728C1.23772 6.53666 1.18368 6.28995 1.24751 6.11658C1.30451 5.96191 1.51945 5.50116 1.77773 5.05406C2.04165 4.59717 2.34001 4.17234 2.45282 4.03786C2.57128 3.89625 2.81323 3.81698 2.99284 3.86122L4.74559 4.29169C4.9249 4.33562 5.2007 4.29644 5.36072 4.20411L7.09981 3.19978C7.25983 3.10745 7.42875 2.88747 7.47654 2.70905L7.91948 1.05575C7.96728 0.877327 8.15401 0.707515 8.33629 0.67664C9.00575 0.563827 10.0368 0.564718 10.7241 0.688218C10.9057 0.720874 11.0922 0.892171 11.14 1.07059L11.5791 2.70905C11.6269 2.88747 11.7958 3.10745 11.9555 3.19978L13.6949 4.20411C13.8549 4.29644 14.1298 4.33266 14.3082 4.28486L15.9467 3.84578C16.1251 3.79798 16.3668 3.87369 16.4858 4.0147C16.9632 4.57995 17.494 5.51303 17.736 6.1905C17.798 6.36476 17.7425 6.61206 17.6119 6.74269L16.4591 7.89516C16.3285 8.02578 16.2225 8.28198 16.2225 8.46664V10.475C16.2225 10.66 16.3285 10.9159 16.4591 11.0465L17.6291 12.2165C17.7597 12.3471 17.8158 12.5947 17.7544 12.769C17.6864 12.9619 17.4575 13.4613 17.1781 13.9455C16.9142 14.4024 16.6158 14.8272 16.503 14.962C16.3843 15.1033 16.1429 15.1796 15.9645 15.1318L14.408 14.7147C14.2293 14.6669 13.9547 14.7031 13.7946 14.7954L12.0552 15.7995C11.8952 15.8918 11.7266 16.1118 11.6788 16.2902L11.246 17.9058C11.1982 18.0842 11.012 18.2576 10.8306 18.2926ZM5.48214 9.49977C5.48214 7.2827 7.28179 5.48275 9.49886 5.48275C11.7156 5.48275 13.5156 7.2827 13.5156 9.49977C13.5156 11.7165 11.7156 13.5165 9.49886 13.5165C7.28179 13.5165 5.48214 11.7165 5.48214 9.49977Z" fill="white"/>
</g>
</svg>
