<svg width="25" height="19" viewBox="0 0 25 19" fill="none" xmlns="http://www.w3.org/2000/svg">
<path d="M23.0469 14.1875H22.6562V1.29688C22.6562 0.986074 22.5328 0.688003 22.313 0.468234C22.0932 0.248465 21.7952 0.125 21.4844 0.125H3.51562C3.20482 0.125 2.90675 0.248465 2.68698 0.468234C2.46722 0.688003 2.34375 0.986074 2.34375 1.29688V14.1875H1.95312C1.64232 14.1875 1.34425 14.311 1.12448 14.5307C0.904715 14.7505 0.78125 15.0486 0.78125 15.3594V16.1406C0.78125 16.8658 1.06934 17.5613 1.58213 18.0741C2.09492 18.5869 2.79042 18.875 3.51562 18.875H21.4844C22.2096 18.875 22.9051 18.5869 23.4179 18.0741C23.9307 17.5613 24.2188 16.8658 24.2188 16.1406V15.3594C24.2188 15.0486 24.0953 14.7505 23.8755 14.5307C23.6557 14.311 23.3577 14.1875 23.0469 14.1875ZM13.832 15.4531C13.8106 15.5398 13.7602 15.6165 13.6891 15.6705C13.6181 15.7246 13.5306 15.7526 13.4414 15.75H11.5469C11.4576 15.7526 11.3702 15.7246 11.2991 15.6705C11.2281 15.6165 11.1776 15.5398 11.1562 15.4531L11.0469 14.9688H13.9531L13.832 15.4531ZM3.125 14.1875V1.29688C3.125 1.19327 3.16616 1.09392 3.23941 1.02066C3.31267 0.947405 3.41202 0.90625 3.51562 0.90625H21.4844C21.588 0.90625 21.6873 0.947405 21.7606 1.02066C21.8338 1.09392 21.875 1.19327 21.875 1.29688V14.1875" fill="white"/>
<path d="M12.5 2.85938C11.5729 2.85938 10.6666 3.13429 9.89577 3.64936C9.12491 4.16443 8.5241 4.89652 8.16932 5.75305C7.81453 6.60958 7.7217 7.55207 7.90257 8.46136C8.08344 9.37065 8.52988 10.2059 9.18544 10.8614C9.841 11.517 10.6762 11.9634 11.5855 12.1443C12.4948 12.3252 13.4373 12.2323 14.2938 11.8776C15.1504 11.5228 15.8824 10.922 16.3975 10.1511C16.9126 9.38026 17.1875 8.47398 17.1875 7.54688C17.1875 6.30367 16.6936 5.11139 15.8146 4.23231C14.9355 3.35324 13.7432 2.85938 12.5 2.85938ZM14.2383 7.89453L11.1133 9.45703C11.0589 9.48492 10.9987 9.49963 10.9375 9.5C10.8644 9.50023 10.7926 9.47993 10.7305 9.44141C10.6742 9.40622 10.6278 9.35727 10.5957 9.29918C10.5635 9.24108 10.5467 9.17576 10.5469 9.10938V5.98438C10.5471 5.91779 10.5643 5.85236 10.5969 5.7943C10.6295 5.73624 10.6764 5.68747 10.7332 5.65264C10.7899 5.61781 10.8546 5.59806 10.9212 5.59527C10.9877 5.59249 11.0538 5.60675 11.1133 5.63672L14.2383 7.19922C14.3023 7.232 14.356 7.2818 14.3935 7.34314C14.431 7.40448 14.4508 7.47498 14.4508 7.54688C14.4508 7.61877 14.431 7.68927 14.3935 7.75061C14.356 7.81195 14.3023 7.86175 14.2383 7.89453Z" fill="white"/>
<path d="M11.3281 8.47656L13.1875 7.54687L11.3281 6.61719V8.47656Z" fill="white"/>
</svg>
